<?xml version="1.0" encoding="utf-8"?>
<!-- Generator: Adobe Illustrator 24.1.2, SVG Export Plug-In . SVG Version: 6.00 Build 0)  -->
<svg version="1.1" id="Camada_1" xmlns="http://www.w3.org/2000/svg" xmlns:xlink="http://www.w3.org/1999/xlink" x="0px" y="0px"
	 viewBox="0 0 171.1 35.6" style="enable-background:new 0 0 171.1 35.6;" xml:space="preserve">
<style type="text/css">
	.st0{fill:#FFAE00;}
</style>
<path class="st0" d="M163.5,30.9c-2.7,0-4.8-0.9-6.1-2.6l2.3-2c0.5,0.6,1.1,1,1.8,1.4c0.7,0.3,1.4,0.5,2.1,0.5
	c0.5,0,1.1-0.1,1.5-0.4c0.4-0.2,0.6-0.6,0.6-1.1c0-0.2,0-0.3-0.1-0.5c-0.1-0.2-0.2-0.3-0.4-0.4c-0.2-0.2-0.5-0.3-0.7-0.4
	c-0.3-0.1-0.7-0.3-1.2-0.5c-0.4-0.2-0.9-0.4-1.3-0.6c-0.4-0.2-0.8-0.5-1.1-0.8c-0.3-0.3-0.6-0.6-0.8-1c-0.2-0.4-0.3-0.9-0.3-1.4
	c0-0.7,0.1-1.3,0.4-1.9c0.3-0.6,0.7-1.1,1.2-1.4c0.5-0.4,1.1-0.7,1.8-0.9c0.7-0.2,1.4-0.3,2.1-0.3c1.1,0,2.1,0.2,3.1,0.6
	c0.8,0.4,1.6,0.9,2.2,1.5l-2.1,2.1c-0.5-0.4-1-0.8-1.6-1.1c-0.6-0.3-1.2-0.4-1.8-0.4c-0.5,0-1.1,0.1-1.5,0.4c-0.3,0.2-0.5,0.6-0.5,1
	c0,0.2,0,0.3,0.1,0.5c0.1,0.2,0.2,0.3,0.4,0.4c0.2,0.2,0.5,0.3,0.8,0.4c0.3,0.1,0.7,0.3,1.2,0.5c0.5,0.2,0.9,0.4,1.3,0.6
	c0.4,0.2,0.7,0.5,1.1,0.8c0.7,0.6,1,1.5,1,2.4c0,0.7-0.1,1.4-0.5,2c-0.3,0.6-0.7,1.1-1.2,1.5c-0.5,0.4-1.1,0.7-1.8,0.9
	C164.9,30.8,164.2,30.9,163.5,30.9 M147.1,16.7h5.1c0.9,0,1.8,0.1,2.6,0.4c0.7,0.2,1.3,0.5,1.8,1c0.7,0.8,1.1,1.8,1.1,2.8
	c0,0.6-0.1,1.3-0.3,1.9c-0.2,0.6-0.6,1-1,1.5c-0.9,0.9-2,1.4-3.2,1.7l2.4,4.8H152l-2.2-4.5h-2.3l-1.2,4.5h-3L147.1,16.7z
	 M151.1,23.6c0.6,0,1.1-0.1,1.6-0.2c0.4-0.1,0.8-0.4,1.2-0.7c0.4-0.4,0.6-0.9,0.6-1.4c0-0.4-0.1-0.8-0.4-1.1c-0.6-0.4-1.3-0.7-2-0.6
	h-2.6l-1.1,4L151.1,23.6z M133.8,16.7h10.4l-0.7,2.7h-7.4l-0.8,2.9h6.5l-0.7,2.7h-6.5l-0.8,3h7.5l-0.7,2.7H130L133.8,16.7z
	 M120.2,16.7h4.4c0.9,0,1.7,0.1,2.6,0.3c0.7,0.2,1.3,0.6,1.8,1.1c0.7,0.8,1.1,1.8,1.1,2.9c0,0.8-0.2,1.6-0.5,2.3
	c-0.3,0.7-0.8,1.3-1.4,1.7c-0.6,0.5-1.4,0.8-2.2,1c-0.9,0.2-1.8,0.4-2.7,0.4h-2.7l-1.1,4.2h-3.1L120.2,16.7z M123.5,23.8
	c0.9,0,1.7-0.2,2.5-0.6c0.6-0.4,1-1.1,0.9-1.9c0-0.4-0.2-0.9-0.5-1.2c-0.2-0.2-0.5-0.4-0.8-0.5c-0.4-0.1-0.8-0.2-1.1-0.1h-2
	l-1.1,4.3H123.5z M107.3,31c-0.9,0-1.8-0.1-2.6-0.5c-1.5-0.6-2.7-1.8-3.3-3.3c-0.3-0.8-0.5-1.6-0.5-2.4c0-1,0.2-2.1,0.6-3.1
	c0.8-2,2.4-3.6,4.4-4.5c1.1-0.5,2.2-0.7,3.4-0.7c0.9,0,1.8,0.1,2.6,0.5c0.7,0.3,1.4,0.7,2,1.3c0.6,0.6,1,1.3,1.3,2
	c0.3,0.8,0.5,1.6,0.5,2.4c0,1-0.2,2-0.6,3c-0.8,2-2.4,3.6-4.4,4.5C109.6,30.7,108.5,30.9,107.3,31L107.3,31z M107.7,28.1
	c0.7,0,1.4-0.2,2-0.5c0.6-0.3,1.1-0.7,1.5-1.2c0.4-0.5,0.8-1.1,1-1.7c0.2-0.6,0.3-1.2,0.4-1.8c0-0.5-0.1-1-0.2-1.4
	c-0.1-0.4-0.4-0.8-0.7-1.1c-0.3-0.3-0.7-0.6-1.1-0.7c-0.5-0.2-1-0.3-1.5-0.3c-0.7,0-1.4,0.2-2,0.5c-0.6,0.3-1.1,0.7-1.5,1.2
	c-0.4,0.5-0.8,1.1-1,1.7c-0.2,0.6-0.3,1.2-0.4,1.8c0,0.5,0.1,1,0.2,1.4c0.1,0.4,0.4,0.8,0.7,1.1c0.3,0.3,0.7,0.6,1.1,0.7
	C106.6,28,107.1,28.1,107.7,28.1L107.7,28.1z M91.1,16.7h3.1l-3,11.2h7l-0.8,2.8H87.3L91.1,16.7z M77.8,16.7h10.5l-0.7,2.7h-7.4
	l-0.8,2.9h6.5L85.1,25h-6.5l-0.8,3h7.5l-0.7,2.7H74L77.8,16.7z M61.8,16.7h3.3l1,9.8l6.2-9.8h3.5l-9.4,14.1h-2.7L61.8,16.7z
	 M47.8,16.7h4.1c1.1,0,2.3,0.1,3.3,0.5c0.8,0.3,1.5,0.7,2.1,1.3c1,1.1,1.6,2.6,1.5,4.1c0,1-0.2,2-0.6,3c-0.4,1-1,1.8-1.7,2.5
	c-0.9,0.9-1.9,1.5-3.1,1.9c-1.4,0.5-2.8,0.7-4.3,0.6H44L47.8,16.7z M49.6,28c0.9,0,1.8-0.1,2.6-0.4c0.8-0.3,1.4-0.7,2-1.3
	c0.4-0.5,0.8-1,1-1.6c0.2-0.6,0.4-1.3,0.4-1.9c0-0.8-0.3-1.6-0.8-2.2c-0.4-0.3-0.8-0.6-1.2-0.7c-0.6-0.2-1.3-0.3-2-0.3H50L47.7,28
	H49.6z"/>
<path class="st0" d="M94.3,5.4h5.4l-0.4,1.4h-3.8l-0.4,1.5h3.4l-0.4,1.4h-3.4l-0.4,1.5h3.9l-0.4,1.4h-5.4L94.3,5.4z M85.4,5.4H88
	c0.5,0,0.9,0.1,1.4,0.2c0.3,0.1,0.7,0.3,0.9,0.5c0.4,0.4,0.6,0.9,0.6,1.4c0,0.3-0.1,0.7-0.2,1c-0.1,0.3-0.3,0.5-0.5,0.8
	c-0.5,0.4-1,0.7-1.7,0.9l1.2,2.5H88l-1.1-2.3h-1.2L85,12.6h-1.6L85.4,5.4z M87.5,8.9c0.3,0,0.6,0,0.8-0.1c0.2-0.1,0.4-0.2,0.6-0.3
	c0.2-0.2,0.3-0.5,0.3-0.7c0-0.2-0.1-0.4-0.2-0.6c-0.3-0.2-0.6-0.3-1-0.3h-1.3l-0.6,2.1H87.5z M78.5,5.3H80l1.2,7.3h-1.6L79.3,11h-3
	l-1.1,1.6h-1.7L78.5,5.3z M79.1,9.6l-0.3-2.4l-1.6,2.4H79.1z M64.7,5.4h5.4l-0.4,1.4H66l-0.4,1.5h3.3l-0.4,1.4h-3.4l-0.4,1.5h3.9
	l-0.4,1.4h-5.4L64.7,5.4z M51.2,5.4h1.7l0.2,4.9l2.9-4.9h1.4l0.3,4.9l2.8-4.9h1.8l-4.4,7.3h-1.5L56,8l-2.8,4.6h-1.4L51.2,5.4z"/>
<polygon class="st0" points="13.2,27.8 19.4,22.2 19.4,22.2 26.1,16.2 26.1,16.2 35.4,7.9 29.1,7.9 6.9,27.9 "/>
<polygon class="st0" points="18.7,11.9 10.7,4 37.4,3.9 41.8,0 7.3,0.3 5.6,4.3 15.6,14.7 "/>
<polygon class="st0" points="23.5,23.8 31.5,31.8 4.8,31.9 0.4,35.8 34.9,35.5 36.6,31.5 26.6,21.1 "/>
</svg>
